<svg xmlns="http://www.w3.org/2000/svg" viewBox="0 0 146.51 146.47"><defs><style>.cls-1{fill:#fff;}</style></defs><g id="Layer_2" data-name="Layer 2"><g id="Layer_1-2" data-name="Layer 1"><path class="cls-1" d="M144.27,53.81H103.72L136,32,125,16.28,92.68,38.09l12-31.44L86.65.07l-12,31.42L64.48,0,45.93,5,56.06,36.47l-25-20.32L18.76,30.88,46.85,53.81H2.23A2.23,2.23,0,0,0,0,56v58a16.08,16.08,0,0,0,16.08,16.09H120.7l25.81,16.31V56A2.23,2.23,0,0,0,144.27,53.81ZM85.81,107.13A2.91,2.91,0,0,1,82.9,110H23.42a2.9,2.9,0,0,1-2.9-2.91V102.9a2.9,2.9,0,0,1,2.9-2.91H82.9a2.91,2.91,0,0,1,2.91,2.91ZM126,92.06A2.91,2.91,0,0,1,123.08,95H23.42a2.9,2.9,0,0,1-2.9-2.91V87.83a2.9,2.9,0,0,1,2.9-2.91h99.66A2.91,2.91,0,0,1,126,87.83ZM126,77a2.9,2.9,0,0,1-2.91,2.9H23.42a2.9,2.9,0,0,1-2.9-2.9V72.76a2.9,2.9,0,0,1,2.9-2.9h99.66a2.9,2.9,0,0,1,2.91,2.9Z"/></g></g></svg>