<svg xmlns="http://www.w3.org/2000/svg" viewBox="0 0 216 301.96">
    <defs>
    <style>.cls-1{fill:#fff;}</style>
    </defs>
    
    <g id="Layer_2" data-name="Layer 2">
        <g id="Layer_1-2" data-name="Layer 1">
            <path class="cls-1" d="M212.71,93.83h-59.8l51.68-36.18-16.24-23.2-51.7,36.21,21.59-59.31-26.62-9.7L110.06,60.92,93.71,0,66.36,7.35l16.3,60.92L34.37,27.72,16.16,49.43l52.92,44.4H3.29A3.29,3.29,0,0,0,0,97.12V222.64a41.12,41.12,0,0,0,41.12,41.12H167.28L216,302V97.12A3.29,3.29,0,0,0,212.71,93.83ZM125.73,194a4.27,4.27,0,0,1-4.28,4.28H33.74A4.28,4.28,0,0,1,29.45,194v-6.24a4.29,4.29,0,0,1,4.29-4.29h87.71a4.28,4.28,0,0,1,4.28,4.29ZM185,171.77a4.28,4.28,0,0,1-4.28,4.29h-147a4.29,4.29,0,0,1-4.29-4.29v-6.24a4.29,4.29,0,0,1,4.29-4.29h147a4.28,4.28,0,0,1,4.28,4.29Zm0-22.22a4.28,4.28,0,0,1-4.28,4.29h-147a4.29,4.29,0,0,1-4.29-4.29v-6.24A4.29,4.29,0,0,1,33.74,139h147a4.28,4.28,0,0,1,4.28,4.29Z"/>
        </g>
    </g>
</svg>